<svg width="18" height="22" viewBox="0 0 18 22" fill="none" xmlns="http://www.w3.org/2000/svg">
<path d="M9.68 5.88C10.38 5.64 10.9 4.98 10.98 4.24C11.03 3.77 10.93 3.33 10.7 2.97L9.42 0.750002C9.23 0.420002 8.75 0.420002 8.55 0.750002L7.27 2.97C7.1 3.27 7 3.62 7 4C7 5.32 8.3 6.35 9.68 5.88ZM13.53 15.92L12.53 14.92L11.45 15.99C10.15 17.29 7.87 17.3 6.56 15.99L5.49 14.92L4.4 15.99C3.75 16.64 2.88 17 1.96 17C1.23 17 0.56 16.77 0 16.39V20C0 21.1 0.9 22 2 22H16C17.1 22 18 21.1 18 20V16.39C17.25 16.9 16.29 17.14 15.26 16.91C14.6 16.77 14.01 16.4 13.53 15.92ZM15 9H10V8C10 7.45 9.55 7 9 7C8.45 7 8 7.45 8 8V9H3C1.34 9 0 10.34 0 12V13.46C0 14.31 0.5 15.13 1.31 15.4C2.04 15.64 2.83 15.46 3.34 14.94L5.48 12.81L7.61 14.94C8.37 15.7 9.62 15.7 10.38 14.94L12.52 12.81L14.65 14.94C15.08 15.37 15.68 15.57 16.3 15.49C17.29 15.36 17.99 14.43 17.99 13.43V12.01C18 10.34 16.66 9 15 9Z" fill="#323232"/>
</svg>
