<svg width="22" height="28" viewBox="0 0 22 28" fill="none" xmlns="http://www.w3.org/2000/svg">
<path d="M13.6667 0.666687H3.00001C1.53334 0.666687 0.333344 1.86669 0.333344 3.33335V24.6667C0.333344 26.1334 1.53334 27.3334 3.00001 27.3334H19C20.4667 27.3334 21.6667 26.1334 21.6667 24.6667V8.66669L13.6667 0.666687ZM15 12.6667H9.66668V14H13.6667C14.4 14 15 14.6 15 15.3334V19.3334C15 20.0667 14.4 20.6667 13.6667 20.6667H12.3333V22H9.66668V20.6667H7.00001V18H12.3333V16.6667H8.33334C7.60001 16.6667 7.00001 16.0667 7.00001 15.3334V11.3334C7.00001 10.6 7.60001 10 8.33334 10H9.66668V8.66669H12.3333V10H15V12.6667Z" fill="white"/>
</svg>
