<svg width="20" height="28" viewBox="0 0 20 28" fill="none" xmlns="http://www.w3.org/2000/svg">
<path d="M19.3334 6.00002H14V0.666687H6.00002V6.00002H0.666687V26H3.33335C3.33335 26.7334 3.93335 27.3334 4.66669 27.3334C5.40002 27.3334 6.00002 26.7334 6.00002 26H14C14 26.7334 14.6 27.3334 15.3334 27.3334C16.0667 27.3334 16.6667 26.7334 16.6667 26H19.3334V6.00002ZM6.66669 22H4.66669V10H6.66669V22ZM11 22H9.00002V10H11V22ZM12 6.00002H8.00002V2.66669H12V6.00002ZM15.3334 22H13.3334V10H15.3334V22Z" fill="white"/>
</svg>
