<svg width="24" height="22" viewBox="0 0 24 22" fill="none" xmlns="http://www.w3.org/2000/svg">
<path d="M21.2267 2.01335C20.96 1.22669 20.2133 0.666687 19.3333 0.666687H4.66667C3.78667 0.666687 3.05333 1.22669 2.77333 2.01335L0.146667 9.57335C0.0533332 9.85335 0 10.1467 0 10.4534V20C0 21.1067 0.893333 22 2 22C3.10667 22 4 21.1067 4 20V19.3334H20V20C20 21.0934 20.8933 22 22 22C23.0933 22 24 21.1067 24 20V10.4534C24 10.16 23.9467 9.85335 23.8533 9.57335L21.2267 2.01335ZM4.66667 15.3334C3.56 15.3334 2.66667 14.44 2.66667 13.3334C2.66667 12.2267 3.56 11.3334 4.66667 11.3334C5.77333 11.3334 6.66667 12.2267 6.66667 13.3334C6.66667 14.44 5.77333 15.3334 4.66667 15.3334ZM19.3333 15.3334C18.2267 15.3334 17.3333 14.44 17.3333 13.3334C17.3333 12.2267 18.2267 11.3334 19.3333 11.3334C20.44 11.3334 21.3333 12.2267 21.3333 13.3334C21.3333 14.44 20.44 15.3334 19.3333 15.3334ZM2.66667 8.66669L4.36 3.57335C4.54667 3.04002 5.05333 2.66669 5.62667 2.66669H18.3733C18.9467 2.66669 19.4533 3.04002 19.64 3.57335L21.3333 8.66669H2.66667Z" fill="white"/>
</svg>
