<svg width="29" height="27" viewBox="0 0 29 27" fill="none" xmlns="http://www.w3.org/2000/svg">
<path d="M19.5 12.6667H17.5V18L21.5 20.6667L22.5 19.0267L19.5 17V12.6667ZM18.8333 8L0.166656 0V9.33333L12.1667 12L0.166656 14.6667V24L9.85999 19.8533C10.9533 23.7733 14.5533 26.6667 18.8333 26.6667C23.98 26.6667 28.1667 22.48 28.1667 17.3333C28.1667 12.1867 23.98 8 18.8333 8ZM18.8333 24C15.1667 24 12.1933 21.04 12.1667 17.3733V17.28C12.1933 13.6267 15.1667 10.6533 18.8333 10.6533C22.5133 10.6533 25.5 13.64 25.5 17.32C25.5 21 22.5133 24 18.8333 24Z" fill="white"/>
</svg>
