<svg width="23" height="28" viewBox="0 0 23 28" fill="none" xmlns="http://www.w3.org/2000/svg">
<path d="M11.5 12.6667C9.72668 12.6667 6.16668 13.56 6.16668 15.3334V15.5467C7.46001 17.04 9.36668 18 11.5 18C13.6333 18 15.54 17.04 16.8333 15.5467V15.3334C16.8333 13.56 13.2733 12.6667 11.5 12.6667ZM11.5 11.3334C12.9667 11.3334 14.1667 10.1334 14.1667 8.66669C14.1667 7.20002 12.9667 6.00002 11.5 6.00002C10.0333 6.00002 8.83334 7.20002 8.83334 8.66669C8.83334 10.1334 10.0333 11.3334 11.5 11.3334ZM11.5 0.666687C17.1 0.666687 22.1667 4.96002 22.1667 11.6C22.1667 16.0267 18.6067 21.2667 11.5 27.3334C4.39334 21.2667 0.833344 16.0267 0.833344 11.6C0.833344 4.96002 5.90001 0.666687 11.5 0.666687Z" fill="white"/>
</svg>
